<?xml version="1.0" encoding="utf-8"?>
<!-- Generator: Adobe Illustrator 27.1.1, SVG Export Plug-In . SVG Version: 6.00 Build 0)  -->
<svg version="1.1" id="Camada_1" xmlns="http://www.w3.org/2000/svg" xmlns:xlink="http://www.w3.org/1999/xlink" x="0px" y="0px"
	 viewBox="0 0 51.5 50" style="enable-background:new 0 0 51.5 50;" xml:space="preserve">
<style type="text/css">
	.st0{fill:#FFFFFF;}
</style>
<g>
	<path class="st0" d="M50,0.2c-0.9-0.4-1.9-0.2-2.5,0.5L28.1,19.5V2.3c0-0.9-0.6-1.7-1.4-2.1c-0.9-0.4-1.9-0.2-2.6,0.5L0.7,23.4
		C0.2,23.8,0,24.4,0,25c0,0.6,0.2,1.2,0.7,1.6l23.4,22.7c0.4,0.4,1,0.7,1.7,0.7c0.3,0,0.6-0.1,0.9-0.2c0.9-0.4,1.4-1.2,1.4-2.1V30.5
		l19.4,18.8c0.4,0.4,1,0.7,1.7,0.7c0.3,0,0.6-0.1,0.9-0.2c0.9-0.4,1.4-1.2,1.4-2.1V2.3C51.5,1.4,50.9,0.5,50,0.2L50,0.2z M23.4,42.2
		L5.6,25L23.4,7.8V42.2z M46.8,42.2L29,25L46.8,7.8V42.2L46.8,42.2z"/>
</g>
</svg>
