<?xml version="1.0" encoding="utf-8"?>
<!-- Generator: Adobe Illustrator 27.3.1, SVG Export Plug-In . SVG Version: 6.00 Build 0)  -->
<svg version="1.1" id="Camada_1" xmlns="http://www.w3.org/2000/svg" xmlns:xlink="http://www.w3.org/1999/xlink" x="0px" y="0px"
	 viewBox="0 0 119.9565964 49.9999924" style="enable-background:new 0 0 119.9565964 49.9999924;" xml:space="preserve">
<style type="text/css">
	.st0{fill:#FFFFFF;}
</style>
<g id="logo">
	<g id="wiki_movimento_brasil">
		<g id="wiki">
			<path id="wiki_x5F_w" class="st0" d="M21.2581329,43.275486l-2.0607376,6.5075912h-1.6268978l-1.4099789-4.4468536
				l-1.4099779,4.4468536h-1.6268978l-2.0607367-6.5075912h1.5184374l1.4099789,4.5553131l1.5184374-4.5553131h1.4099789
				l1.5184364,4.5553131l1.5184383-4.5553131H21.2581329z"/>
			<path id="wiki_x5F_i1" class="st0" d="M21.9088917,43.275486c0-0.4338417,0.3253784-0.7592201,0.8676777-0.7592201
				s0.8676777,0.3253784,0.8676777,0.7592201c0,0.4338379-0.3253784,0.8676758-0.8676777,0.8676758
				C22.2342701,44.0346985,21.9088917,43.7093201,21.9088917,43.275486z M22.0173492,44.7939186h1.4099789v4.9891548h-1.4099789
				V44.7939186z"/>
			<path id="wiki_x5F_k" class="st0" d="M26.8980446,47.8307953l-0.6507607,0.6507568v1.3015213h-1.409977v-6.8329735h1.409977
				v3.9045563l2.0607376-1.9522781h1.7353573l-2.0607357,2.1691971l2.2776566,2.9284172h-1.7353573L26.8980446,47.8307953z"/>
			<path id="wiki_x5F_i2" class="st0" d="M30.6941395,43.275486c0-0.4338417,0.3253784-0.7592201,0.8676777-0.7592201
				c0.5422974,0,0.8676758,0.3253784,0.8676758,0.7592201c0,0.4338379-0.3253784,0.8676758-0.8676758,0.8676758
				C31.0195198,44.0346985,30.6941395,43.7093201,30.6941395,43.275486z M30.802599,44.7939186h1.4099789v4.9891548H30.802599
				V44.7939186z"/>
		</g>
		<g id="movimento">
			<path id="movimento_x5F_m1" class="st0" d="M41.9739647,49.7830772V45.878521l-1.8438187,3.14534h-0.6507568l-1.8438187-3.14534
				v3.7960968h-1.409977V43.275486h1.193058l2.386116,4.0130157l2.3861198-4.0130157h1.1930542v6.3991318L41.9739647,49.7830772
				L41.9739647,49.7830772z"/>
			<path id="movimento_x5F_o1" class="st0" d="M44.3600845,47.2884941c0-1.5184364,1.0845985-2.4945755,2.7114944-2.4945755
				c1.5184402,0,2.7114983,1.0845985,2.7114983,2.4945755c0,1.5184402-1.0845985,2.4945793-2.7114983,2.4945793
				C45.5531387,49.7830772,44.3600845,48.8069344,44.3600845,47.2884941z M48.264637,47.2884941
				c0-0.8676758-0.5423012-1.409977-1.193058-1.409977c-0.7592201,0-1.3015175,0.5423012-1.3015175,1.409977
				c0,0.8676796,0.5422974,1.4099808,1.3015175,1.4099808C47.7223358,48.5900154,48.264637,48.1561775,48.264637,47.2884941z"/>
			<path id="movimento_x5F_v" class="st0" d="M55.4229851,44.7939186l-2.0607376,4.9891548h-1.409977l-2.0607414-4.9891548h1.409977
				l1.3015213,3.3622551l1.409977-3.3622551H55.4229851z"/>
			<path id="movimento_x5F_i" class="st0" d="M55.8568268,43.275486c0-0.4338417,0.3253784-0.7592201,0.8676758-0.7592201
				c0.5423012,0,0.8676796,0.3253784,0.8676796,0.7592201c0,0.4338379-0.3253784,0.8676758-0.8676796,0.8676758
				C56.1822052,44.1431618,55.8568268,43.8177834,55.8568268,43.275486z M55.9652863,44.7939186h1.409977v4.9891548h-1.409977
				V44.7939186z"/>
			<path id="movimento_x5F_m1_00000121255936485201224120000017212282374357501851_" class="st0" d="M67.0281906,46.9631157
				v2.8199577h-1.4099808v-2.6030388c0-0.7592201-0.3253784-1.193058-0.9761353-1.193058
				c-0.6507607,0-1.0845985,0.4338417-1.0845985,1.3015175v2.4945793h-1.4099808v-2.6030388
				c0-0.7592201-0.3253784-1.193058-0.9761391-1.193058c-0.6507568,0-1.0845985,0.4338417-1.0845985,1.3015175v2.4945793h-1.409977
				v-4.9891548h1.3015175v0.5423012c0.3253822-0.4338417,0.8676796-0.6507568,1.5184402-0.6507568
				c0.6507568,0,1.3015213,0.2169189,1.6268997,0.7592201c0.4338417-0.5423012,0.9761391-0.7592201,1.7353554-0.7592201
				C66.1605148,44.685463,67.0281906,45.4446831,67.0281906,46.9631157z"/>
			<path id="movimento_x5F_e" class="st0" d="M73.101944,47.7223358h-3.6876373
				c0.1084595,0.6507568,0.6507568,0.9761429,1.4099808,0.9761429c0.542305,0,0.8676834-0.1084595,1.1930618-0.4338417
				l0.7592163,0.8676758c-0.4338455,0.5423012-1.0846024,0.7592201-2.0607452,0.7592201
				c-1.7353516,0-2.8199539-1.0845985-2.8199539-2.4945755c0-1.5184402,1.0846024-2.4945755,2.6030426-2.4945755
				c1.4099808,0,2.4945755,0.9761391,2.4945755,2.6030388C73.101944,47.3969574,73.101944,47.6138802,73.101944,47.7223358z
				 M69.3058472,46.85466h2.386116c-0.1084595-0.6507568-0.5422974-0.9761429-1.1930542-0.9761429
				C69.956604,45.7700615,69.4143066,46.2038956,69.3058472,46.85466z"/>
			<path id="movimento_x5F_n" class="st0" d="M79.0672379,46.9631157v2.8199577h-1.4099808v-2.6030388
				c0-0.7592201-0.325386-1.193058-0.9761429-1.193058S75.48806,46.4208183,75.48806,47.2884941v2.4945793h-1.4099808v-4.9891548
				h1.3015137v0.5423012c0.4338379-0.4338417,0.9761429-0.6507568,1.6268997-0.6507568
				C78.1995544,44.685463,79.0672379,45.4446831,79.0672379,46.9631157z"/>
			<path id="movimento_x5F_t" class="st0" d="M83.5140915,49.4576912c-0.325386,0.2169228-0.7592163,0.3253822-1.1930618,0.3253822
				c-1.1930542,0-1.843811-0.6507607-1.843811-1.7353592v-2.0607376h-0.7592163v-1.0845985h0.7592163v-1.193058h1.4099808v1.193058
				h1.1930542v1.0845985h-1.1930542v2.0607376c0,0.4338417,0.2169189,0.6507607,0.6507568,0.6507607
				c0.2169189,0,0.4338455-0.1084595,0.5422974-0.2169228L83.5140915,49.4576912z"/>
			<path id="movimento_x5F_o2" class="st0" d="M83.7310028,47.2884941c0-1.5184364,1.0846024-2.4945755,2.7115021-2.4945755
				c1.5184402,0,2.7114944,1.0845985,2.7114944,2.4945755c0,1.5184402-1.0846024,2.4945793-2.7114944,2.4945793
				C84.9240723,49.7830772,83.7310028,48.8069344,83.7310028,47.2884941z M87.7440262,47.2884941
				c0-0.8676758-0.5422974-1.409977-1.1930542-1.409977c-0.7592163,0-1.3015213,0.5423012-1.3015213,1.409977
				c0,0.8676796,0.542305,1.4099808,1.3015213,1.4099808C87.2017288,48.5900154,87.7440262,48.1561775,87.7440262,47.2884941z"/>
		</g>
		<g id="brasil">
			<path id="brasil_x5F_b" class="st0" d="M98.8069305,47.9392586c0,1.0845985-0.8676834,1.7353554-2.4945831,1.7353554h-3.2537918
				v-6.3991318h3.1453323c1.6268997,0,2.386116,0.6507568,2.386116,1.6268959c0,0.6507568-0.325386,1.0845985-0.8676834,1.409977
				C98.373085,46.6377373,98.8069305,47.1800385,98.8069305,47.9392586z M94.4685364,44.4685402v1.5184402h1.5184402
				c0.7592087,0,1.0845947-0.2169189,1.0845947-0.7592201c0-0.5422974-0.4338379-0.7592201-1.0845947-0.7592201H94.4685364z
				 M97.3969574,47.8307953c0-0.5423012-0.4338455-0.7592201-1.1930618-0.7592201H94.468544v1.6268997h1.7353516
				C96.9631119,48.5900154,97.3969574,48.3730927,97.3969574,47.8307953z"/>
			<path id="brasil_x5F_r" class="st0" d="M102.9284058,44.685463v1.3015175c-0.1084595,0-0.2169189,0-0.325386,0
				c-0.7592163,0-1.3015137,0.4338417-1.3015137,1.409977v2.3861198h-1.4099808v-4.9891548h1.3015137v0.6507607
				C101.518425,45.0108414,102.1691818,44.685463,102.9284058,44.685463z"/>
			<path id="brasil_x5F_a" class="st0" d="M108.0260162,46.9631157v2.8199577h-1.3015137v-0.6507607
				c-0.2169189,0.4338417-0.7592163,0.6507607-1.5184402,0.6507607c-1.1930542,0-1.8438187-0.6507607-1.8438187-1.5184402
				s0.6507645-1.5184402,2.0607452-1.5184402h1.0845947c0-0.6507568-0.3253784-0.9761391-1.0845947-0.9761391
				c-0.542305,0-1.0846024,0.2169189-1.4099808,0.4338379l-0.542305-0.9761391
				c0.542305-0.4338417,1.3015137-0.5422974,2.0607376-0.5422974
				C107.1583405,44.685463,108.0260162,45.4446831,108.0260162,46.9631157z M106.6160431,48.1561775v-0.4338417h-0.9761429
				c-0.6507568,0-0.8676834,0.2169228-0.8676834,0.5423012s0.325386,0.6507568,0.7592163,0.6507568
				C106.0737457,48.8069344,106.507576,48.5900154,106.6160431,48.1561775z"/>
			<path id="brasil_x5F_s" class="st0" d="M108.8936996,49.2407761l0.4338379-0.9761391
				c0.4338455,0.3253784,1.0846024,0.4338417,1.7353592,0.4338417s0.8676834-0.2169228,0.8676834-0.4338417
				c0-0.7592201-2.9284134,0-2.9284134-1.9522781c0-0.9761391,0.8676834-1.6268959,2.2776566-1.6268959
				c0.6507568,0,1.4099808,0.1084557,1.843811,0.4338417l-0.4338379,0.9761391
				c-0.4338455-0.3253784-0.9761429-0.3253784-1.4099884-0.3253784c-0.6507568,0-0.8676758,0.2169189-0.8676758,0.4338417
				c0,0.8676758,2.9284134,0,2.9284134,1.9522743c0,0.8676796-0.8676834,1.5184402-2.2776566,1.5184402
				C110.0867538,49.7830772,109.3275375,49.5661545,108.8936996,49.2407761z"/>
			<path id="brasil_x5F_i" class="st0" d="M113.9913101,43.275486c0-0.4338417,0.3253784-0.7592201,0.8676834-0.7592201
				c0.5422974,0,0.8676758,0.3253784,0.8676758,0.7592201c0,0.4338379-0.3253784,0.8676758-0.8676758,0.8676758
				C114.3166885,44.1431618,113.9913101,43.8177834,113.9913101,43.275486z M114.0997696,44.7939186h1.4099808v4.9891548h-1.4099808
				V44.7939186z"/>
			<path id="brasil_x5F_l" class="st0" d="M116.9197311,42.9500999h1.4099808v6.8329735h-1.4099808V42.9500999z"/>
		</g>
	</g>
	<g id="wmb">
		<path id="wmb_x5F_w" class="st0" d="M47.9392586,9.8698473L37.7440338,40.4555283h-6.0737534l-7.7006493-22.5596485
			L16.26898,40.4555283h-6.0737543L0,9.8698473h5.965292l7.7006502,23.2104111l7.7006502-23.2104111h5.3145332l8.0260277,23.42733
			l7.9175682-23.42733C42.5162659,9.8698473,47.9392586,9.8698473,47.9392586,9.8698473z"/>
		<path id="wmb_x5F_m" class="st0" d="M81.3448944,40.4555244v-20.281992l-9.978302,16.8112774h-2.4945755l-9.9783096-16.485899
			v19.9566097h-5.314537V9.8698473h4.6637726l12.0390472,20.2819939L81.9956512,9.8698473h4.6637726v30.5856819
			C86.6594238,40.4555283,81.3448944,40.4555283,81.3448944,40.4555244z"/>
		<path id="wmb_x5F_b" class="st0" d="M119.9565964,32.1041183c0,5.2060738-4.0130081,8.3514061-11.8221207,8.3514061H93.0585632
			V9.8698473h14.2082367c7.2668076,0,11.1713715,3.1453352,11.1713715,7.9175711
			c0,3.1453362-1.5184402,5.4229927-3.9045563,6.7245121C117.6789474,25.5965271,119.9565964,28.1995621,119.9565964,32.1041183z
			 M98.5900116,14.3167009v8.4598684h7.917572c3.9045563,0,6.0737534-1.409977,6.0737534-4.2299328
			s-2.1691971-4.2299347-6.0737534-4.2299347L98.5900116,14.3167009L98.5900116,14.3167009z M114.2082291,31.5618191
			c0-3.0368748-2.2776489-4.4468555-6.5075912-4.4468555h-9.1106262v8.7852478h9.1106262
			C111.9305725,36.0086746,114.2082291,34.5986938,114.2082291,31.5618191z"/>
	</g>
	<g id="grupo_de_usuarios">
		<g id="grupo">
			<path id="grupo_x5F_g" class="st0" d="M57.1583443,2.9284163h1.0845985v1.9522772
				c-0.5422974,0.4338398-1.3015175,0.6507592-1.9522743,0.6507592c-1.5184402,0-2.7114983-1.0845985-2.7114983-2.4945767
				c0-1.518438,1.0845985-2.4945767,2.7114983-2.4945767c0.8676758,0,1.5184402,0.3253796,2.0607376,0.8676788l-0.8676834,0.6507593
				c-0.3253784-0.3253797-0.7592201-0.5422994-1.3015175-0.5422994c-0.9761391,0-1.6268997,0.6507591-1.6268997,1.518438
				s0.6507607,1.5184376,1.6268997,1.5184376c0.3253784,0,0.5422974-0.1084595,0.8676796-0.2169194L57.1583443,2.9284163
				L57.1583443,2.9284163z"/>
			<path id="grupo_x5F_r" class="st0" d="M61.4967384,1.7353578v0.9761386c-0.1084557,0-0.1084557,0-0.2169189,0
				c-0.6507568,0-0.9761391,0.3253796-0.9761391,1.0845985v1.7353578h-1.0845985V1.7353578h1.0845985v0.542299
				C60.4121399,1.8438176,60.8459778,1.7353578,61.4967384,1.7353578z"/>
			<path id="grupo_x5F_u" class="st0" d="M65.9435959,1.7353578v3.7960949h-1.0846024V5.0976129
				c-0.3253784,0.3253798-0.7592163,0.5422993-1.193058,0.5422993c-0.9761391,0-1.6268959-0.5422993-1.6268959-1.7353573V1.7353576
				h1.0845985v1.9522773c0,0.6507592,0.3253784,0.8676786,0.7592201,0.8676786c0.5422974,0,0.8676758-0.3253794,0.8676758-0.9761386
				V1.7353578H65.9435959z"/>
			<path id="grupo_x5F_p" class="st0" d="M71.0412064,3.5791752c0,1.1930587-0.8676834,1.9522774-1.8438187,1.9522774
				c-0.4338379,0-0.8676758-0.1084599-1.0845947-0.4338398v1.7353578h-1.0846024V1.7353578h1.0846024v0.4338393
				c0.3253784-0.3253795,0.6507568-0.5422993,1.1930542-0.5422993C70.1735229,1.7353578,71.0412064,2.386117,71.0412064,3.5791752z
				 M69.956604,3.5791752c0-0.6507592-0.4338379-1.0845985-0.9761353-1.0845985s-0.9761429,0.4338396-0.9761429,1.0845985
				s0.4338455,1.0845988,0.9761429,1.0845988S69.956604,4.2299347,69.956604,3.5791752z"/>
			<path id="grupo_x5F_o" class="st0" d="M71.4750443,3.5791752c0-1.0845985,0.8676834-1.9522774,2.0607452-1.9522774
				c1.1930542,0,2.0607376,0.7592192,2.0607376,1.9522774c0,1.0845988-0.8676834,1.9522774-2.0607376,1.9522774
				C72.3427277,5.5314527,71.4750443,4.772234,71.4750443,3.5791752z M74.5119171,3.5791752
				c0-0.6507592-0.4338379-1.0845985-0.9761429-1.0845985c-0.5422974,0-0.9761353,0.4338396-0.9761353,1.0845985
				s0.4338379,1.0845988,0.9761353,1.0845988C74.0780869,4.663774,74.5119171,4.2299347,74.5119171,3.5791752z"/>
		</g>
		<g id="de">
			<path id="de_x5F_d" class="st0" d="M82.2125778,0.3253796v5.2060738h-1.0846024V5.0976129
				c-0.3253784,0.3253798-0.6507568,0.5422993-1.1930542,0.5422993c-1.0846024,0-1.8438187-0.7592187-1.8438187-1.9522772
				s0.8676834-1.9522773,1.8438187-1.9522773c0.4338379,0,0.8676834,0.1084598,1.0845947,0.4338394V0.3253796H82.2125778z
				 M81.1279755,3.5791752c0-0.6507592-0.4338379-1.0845985-0.9761429-1.0845985
				c-0.5422974,0-0.9761353,0.4338396-0.9761353,1.0845985s0.4338379,1.0845988,0.9761353,1.0845988
				C80.6941376,4.663774,81.1279755,4.2299347,81.1279755,3.5791752z"/>
			<path id="de_x5F_e" class="st0" d="M86.8763428,3.9045548h-2.8199539
				c0.1084595,0.4338393,0.5422974,0.7592187,1.0846024,0.7592187c0.4338379,0,0.6507568-0.1084599,0.9761353-0.3253794
				l0.5422974,0.6507592c-0.3253784,0.4338393-0.8676758,0.6507587-1.5184326,0.6507587
				c-1.3015213,0-2.1691971-0.8676786-2.1691971-1.9522772s0.8676758-1.9522773,1.9522781-1.9522773
				c1.0845947,0,1.9522781,0.7592191,1.9522781,1.9522773C86.8763428,3.6876352,86.8763428,3.7960949,86.8763428,3.9045548z
				 M83.9479294,3.2537956h1.8438187c-0.1084595-0.4338396-0.4338455-0.7592189-0.9761429-0.7592189
				C84.3817749,2.4945767,84.0563889,2.8199561,83.9479294,3.2537956z"/>
		</g>
		<g id="usuarios">
			<path id="usuarios_x5F_u1" class="st0" d="M93.383934,1.7353578v3.7960949h-1.0845947V5.0976129
				c-0.3253784,0.3253798-0.6507568,0.4338398-1.1930618,0.4338398c-0.9761353,0-1.6268921-0.5422993-1.6268921-1.7353578V1.6268978
				h1.0845947v1.9522774c0,0.6507595,0.325386,0.8676789,0.7592163,0.8676789c0.5422974,0,0.8676834-0.3253794,0.8676834-0.9761388
				V1.7353578H93.383934z"/>
			<path id="usuarios_x5F_s1" class="st0" d="M94.0346909,5.0976129l0.325386-0.7592187
				c0.3253784,0.2169194,0.8676834,0.3253798,1.3015137,0.3253798c0.5422974,0,0.6507568-0.1084599,0.6507568-0.3253798
				c0-0.650759-2.2776566,0-2.2776566-1.5184381c0-0.7592189,0.6507568-1.1930584,1.7353592-1.1930584
				c0.5422974,0,1.0845947,0.1084599,1.4099808,0.3253797l-0.325386,0.7592189
				C96.5292664,2.4945767,96.0954285,2.386117,95.77005,2.386117c-0.4338455,0-0.6507568,0.1084597-0.6507568,0.3253794
				c0,0.6507592,2.2776566,0,2.2776566,1.5184383c0,0.6507587-0.6507645,1.193058-1.7353592,1.193058
				C95.0108337,5.5314527,94.3600769,5.4229927,94.0346909,5.0976129z"/>
			<path id="usuarios_x5F_u2" class="st0" d="M101.8438034,1.7353578v3.7960949h-1.0845947V5.0976129
				c-0.325386,0.3253798-0.7592163,0.5422993-1.1930542,0.5422993c-0.9761429,0-1.6268997-0.5422993-1.6268997-1.7353573V1.7353576
				h1.0845947v1.9522773c0,0.6507592,0.325386,0.8676786,0.7592163,0.8676786c0.542305,0,0.8676834-0.3253794,0.8676834-0.9761386
				V1.7353578H101.8438034z"/>
			<path id="usuarios_x5F_a" class="st0" d="M106.1822052,3.3622556v2.1691971h-0.9761429V4.9891534
				c-0.2169189,0.3253798-0.5422974,0.5422993-1.1930542,0.5422993c-0.8676834,0-1.4099884-0.5422993-1.4099884-1.1930585
				s0.4338455-1.0845985,1.6268997-1.0845985h0.8676834c0-0.4338396-0.325386-0.7592189-0.8676834-0.7592189
				c-0.4338379,0-0.7592163,0.1084597-1.0845947,0.3253794l-0.3253784-0.650759
				c0.4338455-0.3253795,0.9761429-0.4338393,1.6268997-0.4338393
				C105.5314407,1.7353578,106.1822052,2.1691971,106.1822052,3.3622556z M105.0976028,4.3383942V3.9045548h-0.7592163
				c-0.5422974,0-0.6507568,0.2169199-0.6507568,0.4338393c0,0.3253798,0.2169189,0.4338398,0.6507568,0.4338398
				C104.663765,4.772234,104.9891434,4.663774,105.0976028,4.3383942z M104.7722168,1.3015183h-0.8676758l0.9761353-0.9761387
				h1.1930618L104.7722168,1.3015183z"/>
			<path id="usuarios_x5F_r" class="st0" d="M109.5444565,1.7353578v0.9761386c-0.1084595,0-0.1084595,0-0.2169189,0
				c-0.6507568,0-0.9761353,0.3253796-0.9761353,1.0845985v1.7353578h-1.0846024V1.7353578h1.0846024v0.542299
				C108.4598541,1.8438176,109.0021591,1.7353578,109.5444565,1.7353578z"/>
			<path id="usuarios_x5F_i" class="st0" d="M110.0867538,0.6507592C110.0867538,0.3253796,110.4121399,0,110.7375107,0
				c0.4338455,0,0.6507568,0.2169197,0.6507568,0.5422993s-0.3253784,0.6507592-0.6507568,0.6507592
				C110.3036728,1.1930585,110.0867538,0.9761387,110.0867538,0.6507592z M110.1952133,1.7353578h1.0845947v3.7960949h-1.0845947
				V1.7353578z"/>
			<path id="usuarios_x5F_o" class="st0" d="M112.039032,3.5791752c0-1.0845985,0.8676834-1.9522774,2.0607452-1.9522774
				c1.1930542,0,2.0607376,0.7592192,2.0607376,1.9522774c0,1.0845988-0.8676834,1.9522774-2.0607376,1.9522774
				C112.9067154,5.5314527,112.039032,4.772234,112.039032,3.5791752z M115.0759048,3.5791752
				c0-0.6507592-0.4338379-1.0845985-0.9761353-1.0845985c-0.542305,0-0.9761429,0.4338396-0.9761429,1.0845985
				s0.4338379,1.0845988,0.9761429,1.0845988C114.642067,4.663774,115.0759048,4.2299347,115.0759048,3.5791752z"/>
			<path id="usuarios_x5F_s2" class="st0" d="M116.4858856,5.0976129l0.325386-0.7592187
				c0.3253784,0.2169194,0.8676834,0.3253794,1.3015137,0.3253794c0.5422974,0,0.6507568-0.1084599,0.6507568-0.3253794
				c0-0.6507595-2.2776566,0-2.2776566-1.5184381c0-0.7592189,0.6507568-1.1930584,1.7353592-1.1930584
				c0.5422974,0,1.0845947,0.1084599,1.4099808,0.3253797l-0.325386,0.7592189
				c-0.3253784-0.2169197-0.7592163-0.3253794-1.0845947-0.3253794c-0.4338455,0-0.6507568,0.1084597-0.6507568,0.3253794
				c0,0.6507592,2.2776566,0,2.2776566,1.5184383c0,0.6507587-0.6507568,1.193058-1.7353592,1.193058
				C117.4620285,5.5314527,116.811264,5.4229927,116.4858856,5.0976129z"/>
		</g>
	</g>
</g>
</svg>
