<?xml version="1.0" encoding="utf-8"?>
<!-- Generator: Adobe Illustrator 27.1.1, SVG Export Plug-In . SVG Version: 6.00 Build 0)  -->
<svg version="1.1" id="Camada_1" xmlns="http://www.w3.org/2000/svg" xmlns:xlink="http://www.w3.org/1999/xlink" x="0px" y="0px"
	 viewBox="0 0 95.5 50" style="enable-background:new 0 0 95.5 50;" xml:space="preserve">
<style type="text/css">
	.st0{fill:rgba(255, 255, 255, 1);}
</style>
	<path id="s" class="st0" d="M13.7,50H2.3c-0.9,0-1.7-0.6-2.1-1.4c-0.4-0.8-0.2-1.8,0.5-2.5l17.6-17.6c-1.4-0.8-2.9-1.3-4.6-1.3
		C6.1,27.3,0,21.2,0,13.6S6.1,0,13.7,0H25c1.3,0,2.3,1,2.3,2.3s-1,2.3-2.3,2.3H13.7c-5,0-9.1,4.1-9.1,9.1s4.1,9.1,9.1,9.1
		c2.9,0,5.7,0.9,7.9,2.5l1.9-1.9c0.9-0.9,2.3-0.9,3.2,0c0.9,0.9,0.9,2.3,0,3.2l-1.9,1.9c1.6,2.2,2.5,5,2.5,7.9
		C27.3,43.9,21.2,50,13.7,50z M7.8,45.5h5.9c5,0,9.1-4.1,9.1-9.1c0-1.7-0.5-3.3-1.3-4.6L7.8,45.5z"/>
	<path id="a1" class="st0" d="M47.8,50c-0.6,0-1.2-0.2-1.6-0.7L23.4,26.6c-0.9-0.9-0.9-2.3,0-3.2L46.1,0.7c0.6-0.7,1.6-0.8,2.5-0.5
		C49.5,0.5,50,1.4,50,2.3v45.5c0,0.9-0.6,1.7-1.4,2.1C48.3,49.9,48,50,47.8,50z M28.2,25l17.2,17.2V7.8L28.2,25z"/>
	<path id="r" class="st0" d="M47.7,50c-0.3,0-0.6-0.1-0.9-0.2c-0.8-0.4-1.4-1.2-1.4-2.1V13.6C45.5,6.1,51.6,0,59.1,0h11.4
		C78,0,84.1,6.1,84.1,13.6c0,0.6-0.2,1.2-0.7,1.6L73.7,25l21.1,21.1c0.9,0.9,0.9,2.3,0,3.2c-0.9,0.9-2.3,0.9-3.2,0L70.5,28.2
		L49.4,49.3C48.9,49.8,48.3,50,47.7,50z M59.1,4.5c-5,0-9.1,4.1-9.1,9.1v28.6l29.5-29.5c-0.5-4.6-4.3-8.2-9-8.2H59.1z"/>
	<path id="a2" class="st0" d="M93.2,50c-0.6,0-1.2-0.2-1.6-0.7L68.9,26.6c-0.9-0.9-0.9-2.3,0-3.2L91.6,0.7c0.6-0.6,1.6-0.8,2.5-0.5
		c0.8,0.4,1.4,1.2,1.4,2.1v45.5c0,0.9-0.6,1.7-1.4,2.1C93.8,49.9,93.5,50,93.2,50z M73.7,25l17.2,17.2V7.8L73.7,25z"/>
</svg>
