<?xml version="1.0" encoding="utf-8"?>
<!-- Generator: Adobe Illustrator 27.3.1, SVG Export Plug-In . SVG Version: 6.00 Build 0)  -->
<svg version="1.1" id="Camada_1" xmlns="http://www.w3.org/2000/svg" xmlns:xlink="http://www.w3.org/1999/xlink" x="0px" y="0px"
	 viewBox="0 0 227.3959198 227.3959045" style="enable-background:new 0 0 227.3959198 227.3959045;" xml:space="preserve">
<style type="text/css">
	.st0{fill:#FFFFFF;}
	.st1{fill:#3267FF;}
</style>
<path id="male" class="st0" d="M193.2765961,149.750946c-5.4199219-14.7514648-2.4661865-18.0420532,2.2409058-29.233696
	c4.9064941-11.6655273,14.6315918-13.4827881,10.5060425-24.1425781
	c-4.4659424-11.5395508,12.770874-12.4284668,3.9223022-25.4685059c-14.9012451-21.9598427-5.175293-22.7999916-21.49823-31.0941811
	c-13.2862549-6.7510986-2.6177979-9.6155396-21.9890137-12.1558838
	c-15.6287231-2.0496216-12.4135132,8.5609741-33.3305664,12.5452271
	c-7.1593094,6.8617554-9.2730789,13.6953125-17.0897903,16.8200684c-3.4274902,1.3701782,1.4489746,7.8845253-4.1325684,23.9145546
	c-2.0958862,6.0193481,6.2460938,17.7525635,8.3626099,27.2277832c3.1450195,5.6379395,4.1911011,9.9537354,4.5493774,11.8345947
	c6.4046707,6.5870361,7.2439041,14.3228683,8.8316727,23.2938156c0.3497925,6.3344116,0.2875977,15.7669678-4.4912109,18.5187378
	c-8.6538162,4.9831543-18.6926956,10.6118164-27.5538406,17.2258301c-6.866333,2.4558105-32.0005493,6.5571289-39.1404991,15.5
	c0.3232422,14.196228,0.2172241,21.8495483,0.0651245,32.7999268c0,0,100.8303833-0.0917358,164.8670044-0.0101318v-48.3474731
	c-0.7347412-0.3278198-1.3640137-0.7365723-1.8560791-1.2714233
	C206.6657562,157.1903381,198.3095551,163.4493713,193.2765961,149.750946z"/>
<path id="female" class="st1" d="M134.4644623,188.2718201c-15.5825882-3.3217163-19.3004227-6.2435303-31.4824905-16.1693726
	c-7.3390503-5.9797974-5.4647217-18.0259399-3.0845947-23.2277832c2.1569214-1.9660645,3.3419189-3.7542114,4.847229-7.4088745
	c2.9911499,0.517334,8.7039795,0.6264038,9.5965576-0.300354c2.6559448-1.2532959,6.0098267-11.5314331,12.1425171-15.3182907
	c0.8947144-0.3803101,1.6981888-0.9379272,2.4222488-1.6498413c2.0188599-3.1220703,7.7296753-0.6281128,6.9874268-7.230896
	c-0.1763306,6.5582886-4.6953735,3.1900635-4.0564575,1.671936c1.0018921-2.3806763,1.5657959-3.2861328,2.2359009-6.5075684
	c2.5974731-2.9680786,7.1589966-2.0313721,7.6380615-9.2110596c0.7992554-3.0636597,2.4873657-4.0612793,1.5177612-5.5566406
	c-2.710022,5.0133667-2.9431152-1.8760986-4.4065552-2.8533936c4.9168701,1.0390015,5.9590454-1.4118042,5.8264771-5.0059814
	c-1.3027954,1.4768677-2.1900024,0.7528687-2.8887329,0.5006104c1.0750732-0.3397827,0.9451904-2.4708862,1.0771484-3.6543579
	c-0.4569702,0.6151123-0.9140015,2.4069824-1.3709717,1.6018677c0.7630005-4.1020508-0.2681274-6.484375-1.5667725-8.6102905
	c0.8566284,3.3148193,0.7697754,8.0632935-3.1335449,6.4076538c1.6539307-2.2886353,1.8287354-4.6500244,1.5667725-6.8081055
	c-1.1750488,2.5653687-2.3501587,5.0827026-3.5252686,3.6043091c-0.116272-0.5096436,0.199585-2.2224121-0.3916626-3.6043091
	c0,0,0.0663452,0.0357666-0.7833862,1.6019287c-1.1966553,2.2055054-1.8699341-0.6728516-1.3709106-1.4016724
	c-0.8486938,0.553833-1.6973877,0.8968506-2.5460205,0c-0.5935669-1.460144,0.1658936-3.4233398,0.979187-5.4064941
	c-4.2586136,7.6558838-4.1472244,2.7391357-14.2968826-19.2230263
	c-6.9800415-15.1036987-12.8275146-16.4291992-19.7316284-20.5961914h0.000061
	c-9.4117432-5.6804199-12.0690918-2.0524292-15.5209351-2.0524292c-1.199585,0-2.9302979-0.1872559-5.581665-1.5518799
	c-4.6434937-2.3899536-11.8525963-2.0562134-21.1025352,3.8546143c-9.4006958,6.0072021-11.5187378,7.7672729-16.5001831,15.9406128
	c-2.0441284,3.3540649-4.9940796,12.8654175-4.9940796,12.8654175c-2.2574463,0.6066895-3.6976318,2.6339149-4.6513672,5.5065956
	c-1.5917358,0.486084-2.1595459,1.5278931-3.2315063,4.4052734c-1.6799316,1.4152832-2.3236694-0.1713867-3.2804565-0.8510132
	c1.6148071,3.4879761-1.8331299,11.28479,0.2937622,14.4672852c-1.682373,0.7218018-2.2130127,2.1682739-2.2032471,3.9547119
	c-1.5065918,1.3519897-2.8543701,0.2042236-4.357605-0.6507568c0,0-0.2722778,2.965271,4.8961792,3.5542603
	c6.6962891,0.7630615-5.8754272,1.0011597-5.8754272,1.0011597l3.0356445,0.7008667
	c-1.4465942,0.8338013-2.874939,1.3205566-4.602417,0.3504028c0.9561768,6.652771-3.2122803,11.7941284,3.7700806,20.2241821
	c-0.9302979-0.5304565-1.4688721-0.8811035-2.3991699-2.3027344c-0.1408691,2.6918335-0.8122559,5.5924072,0.6365356,7.6591187
	l0.8812866,2.4529419c1.0633545,7.541069,4.9447632,6.9468307,8.0787354,8.5101852
	c3.1670532,5.2353516,6.2658081,10.6271973,13.1217651,7.4088745c0.0068359,5.421875,2.7550659,4.9575806,5.2879028,4.9559326
	c0.9824219,2.0568848,3.7212524,3.5152588,9.0089722,4.1049194c1.4702759,6.3421631,2.8151245,18.0778198-3.8190308,23.8284912
	c-10.6362305,9.2197876-15.8126831,12.1484985-28.4468384,15.2682495
	c-8.3012695,2.0498047-14.4520874,4.6762695-19.1102905,7.6714478v32.2035522h171.7131348
	C165.9766083,212.8237,167.8416595,195.3867493,134.4644623,188.2718201z"/>
</svg>
