<?xml version="1.0" encoding="utf-8"?>
<!-- Generator: Adobe Illustrator 27.3.1, SVG Export Plug-In . SVG Version: 6.00 Build 0)  -->
<svg version="1.1" id="Camada_1" xmlns="http://www.w3.org/2000/svg" xmlns:xlink="http://www.w3.org/1999/xlink" x="0px" y="0px"
	 viewBox="0 0 95.5038834 50" style="enable-background:new 0 0 95.5038834 50;" xml:space="preserve">
<style type="text/css">
	.st0{fill:#FFFFFF;}
</style>
<path id="s" class="st0" d="M13.7038689,50H2.3038673c-0.9,0-1.7000003-0.5999985-2.1000001-1.4000015
	c-0.4000001-0.7999992-0.2-1.7999992,0.5000001-2.5l17.6000042-17.6000004
	c-1.3999996-0.7999992-2.9000006-1.2999992-4.6000013-1.2999992C6.103868,27.2999992,0.0038672,21.2000008,0.0038672,13.6000004
	S6.103868,0,13.7038689,0H25.00387c1.2999992,0,2.2999992,1,2.2999992,2.3s-1,2.3-2.2999992,2.3H13.7038689
	c-5.000001,0-9.1000023,4.0999999-9.1000023,9.1000004s4.0999999,9.1000004,9.1000023,9.1000004
	c2.9000015,0,5.7000008,0.8999996,7.9000015,2.5l1.8999996-1.8999996c0.8999996-0.8999996,2.2999992-0.8999996,3.2000008,0
	c0.8999996,0.8999996,0.8999996,2.2999992,0,3.2000008l-1.8999996,1.8999996c1.6000004,2.2000008,2.5,4.9999981,2.5,7.8999996
	C27.3038692,43.9000015,21.2038708,50,13.7038689,50z M7.8038683,45.5h5.9000015
	c5.000001,0,9.1000013-4.0999985,9.1000013-9.0999985c0-1.7000008-0.5-3.2999992-1.2999992-4.6000004L7.8038683,45.5z"/>
<path id="a1" class="st0" d="M47.8038712,50c-0.5999985,0-1.2000008-0.2000008-1.5999985-0.7000008L23.4038696,26.6000004
	c-0.8999996-0.8999996-0.8999996-2.2999992,0-3.2000008L46.1038704,0.7c0.5999985-0.7,1.5999985-0.8,2.5-0.5
	S50.0038719,1.4,50.0038719,2.3v45.5c0,0.9000015-0.5999985,1.7000008-1.4000015,2.0999985
	C48.3038712,49.9000015,48.0038719,50,47.8038712,50z M28.2038708,25l17.2000027,17.2000008V7.8000002L28.2038708,25z"/>
<path id="r" class="st0" d="M47.7038727,50c-0.2999992,0-0.5999985-0.0999985-0.9000015-0.2000008
	c-0.7999992-0.4000015-1.4000015-1.2000008-1.4000015-2.0999985V13.6000004C45.5038719,6.0999999,51.6038742,0,59.1038742,0
	h11.4000015c7.5,0,13.5999985,6.0999999,13.5999985,13.6000004c0,0.6000004-0.1999969,1.1999998-0.6999969,1.6000004L73.7038727,25
	l21.1000061,21.0999985c0.9000015,0.9000015,0.9000015,2.2999992,0,3.2000008c-0.9000092,0.9000015-2.3000107,0.9000015-3.2000046,0
	L70.5038757,28.2000008L49.4038734,49.2999992C48.9038734,49.7999992,48.3038712,50,47.7038727,50z M59.1038742,4.5
	c-5,0-9.1000023,4.1000004-9.1000023,9.1000004v28.6000004l29.5000038-29.5c-0.5-4.6000004-4.3000031-8.1999998-9-8.1999998
	C70.5038757,4.500001,59.1038742,4.500001,59.1038742,4.5z"/>
<path id="a2" class="st0" d="M93.2038727,50c-0.5999985,0-1.1999969-0.2000008-1.5999985-0.7000008L68.9038773,26.6000004
	c-0.9000015-0.8999996-0.9000015-2.2999992,0-3.2000008L91.6038742,0.7c0.5999985-0.6,1.5999985-0.8,2.5-0.5
	c0.8000107,0.4,1.4000092,1.2,1.4000092,2.0999999v45.5c0,0.9000015-0.5999985,1.7000008-1.4000092,2.0999985
	C93.8038788,49.9000015,93.5038757,50,93.2038727,50z M73.7038727,25l17.1999969,17.2000008V7.8000002L73.7038727,25z"/>
</svg>
